<svg id="Layer_1" data-name="Layer 1" xmlns="http://www.w3.org/2000/svg" viewBox="0 0 1366 1600"><defs><style>.cls-1{fill:#ffe98d;}</style></defs><title>bg1Artboard 1</title><circle class="cls-1" cx="635.29" cy="716.25" r="6.62"/><circle class="cls-1" cx="655.63" cy="716.25" r="6.62"/><circle class="cls-1" cx="675.97" cy="716.25" r="6.62"/><circle class="cls-1" cx="696.31" cy="716.25" r="6.62"/><circle class="cls-1" cx="716.65" cy="716.25" r="6.62"/><circle class="cls-1" cx="635.29" cy="734.81" r="6.62"/><circle class="cls-1" cx="655.63" cy="734.81" r="6.62"/><circle class="cls-1" cx="675.97" cy="734.81" r="6.62"/><circle class="cls-1" cx="696.31" cy="734.81" r="6.62"/><circle class="cls-1" cx="716.65" cy="734.81" r="6.62"/><circle class="cls-1" cx="736.98" cy="734.81" r="6.62"/><path class="cls-1" d="M635.29,760a6.62,6.62,0,1,1,6.62-6.61A6.62,6.62,0,0,1,635.29,760Z"/><path class="cls-1" d="M655.63,760a6.62,6.62,0,1,1,6.62-6.61A6.61,6.61,0,0,1,655.63,760Z"/><path class="cls-1" d="M676,760a6.62,6.62,0,1,1,6.62-6.61A6.61,6.61,0,0,1,676,760Z"/><path class="cls-1" d="M696.31,760a6.62,6.62,0,1,1,6.61-6.61A6.61,6.61,0,0,1,696.31,760Z"/><path class="cls-1" d="M716.65,760a6.62,6.62,0,1,1,6.61-6.61A6.61,6.61,0,0,1,716.65,760Z"/><path class="cls-1" d="M737,760a6.62,6.62,0,1,1,6.62-6.61A6.61,6.61,0,0,1,737,760Z"/><path class="cls-1" d="M757.32,760a6.62,6.62,0,1,1,6.62-6.61A6.61,6.61,0,0,1,757.32,760Z"/><path class="cls-1" d="M777.66,760a6.62,6.62,0,1,1,6.62-6.61A6.62,6.62,0,0,1,777.66,760Z"/><circle class="cls-1" cx="635.29" cy="771.92" r="6.62"/><circle class="cls-1" cx="655.63" cy="771.92" r="6.62"/><circle class="cls-1" cx="675.97" cy="771.92" r="6.62"/><circle class="cls-1" cx="696.31" cy="771.92" r="6.62"/><circle class="cls-1" cx="716.65" cy="771.92" r="6.62"/><circle class="cls-1" cx="736.98" cy="771.92" r="6.62"/><circle class="cls-1" cx="757.32" cy="771.92" r="6.62"/><circle class="cls-1" cx="635.29" cy="790.48" r="6.62"/><circle class="cls-1" cx="655.63" cy="790.48" r="6.62"/><circle class="cls-1" cx="675.97" cy="790.48" r="6.62"/><circle class="cls-1" cx="635.29" cy="809.04" r="6.62"/><circle class="cls-1" cx="655.63" cy="809.04" r="6.62"/><circle class="cls-1" cx="675.97" cy="809.04" r="6.62"/><circle class="cls-1" cx="696.31" cy="809.04" r="6.62"/><circle class="cls-1" cx="716.65" cy="809.04" r="6.62"/><circle class="cls-1" cx="635.29" cy="827.6" r="6.62"/><circle class="cls-1" cx="655.63" cy="827.6" r="6.62"/><circle class="cls-1" cx="675.97" cy="827.6" r="6.62"/><circle class="cls-1" cx="696.31" cy="827.6" r="6.62"/><circle class="cls-1" cx="716.65" cy="827.6" r="6.62"/><circle class="cls-1" cx="736.98" cy="827.6" r="6.62"/><circle class="cls-1" cx="757.32" cy="827.6" r="6.62"/><path class="cls-1" d="M635.29,852.77a6.62,6.62,0,1,1,6.62-6.62A6.62,6.62,0,0,1,635.29,852.77Z"/><path class="cls-1" d="M655.63,852.77a6.62,6.62,0,1,1,6.62-6.62A6.62,6.62,0,0,1,655.63,852.77Z"/><path class="cls-1" d="M676,852.77a6.62,6.62,0,1,1,6.62-6.62A6.62,6.62,0,0,1,676,852.77Z"/><path class="cls-1" d="M696.31,852.77a6.62,6.62,0,1,1,6.61-6.62A6.62,6.62,0,0,1,696.31,852.77Z"/><path class="cls-1" d="M716.65,852.77a6.62,6.62,0,1,1,6.61-6.62A6.62,6.62,0,0,1,716.65,852.77Z"/><path class="cls-1" d="M737,852.77a6.62,6.62,0,1,1,6.62-6.62A6.61,6.61,0,0,1,737,852.77Z"/><circle class="cls-1" cx="635.29" cy="864.71" r="6.62"/><circle class="cls-1" cx="655.63" cy="864.71" r="6.62"/><circle class="cls-1" cx="675.97" cy="864.71" r="6.62"/><circle class="cls-1" cx="696.31" cy="864.71" r="6.62"/><circle class="cls-1" cx="716.65" cy="864.71" r="6.62"/><circle class="cls-1" cx="635.29" cy="883.27" r="6.62"/><circle class="cls-1" cx="655.63" cy="883.27" r="6.62"/><circle class="cls-1" cx="675.97" cy="883.27" r="6.62"/><circle class="cls-1" cx="696.31" cy="883.27" r="6.62"/><circle class="cls-1" cx="716.65" cy="883.27" r="6.62"/><circle class="cls-1" cx="736.98" cy="883.27" r="6.62"/><circle class="cls-1" cx="757.32" cy="883.27" r="6.62"/><circle class="cls-1" cx="635.29" cy="901.82" r="6.62"/><circle class="cls-1" cx="655.63" cy="901.82" r="6.62"/><circle class="cls-1" cx="675.97" cy="901.82" r="6.62"/><circle class="cls-1" cx="696.31" cy="901.82" r="6.62"/><circle class="cls-1" cx="716.65" cy="901.82" r="6.62"/><circle class="cls-1" cx="736.98" cy="901.82" r="6.62"/><path class="cls-1" d="M635.29,927a6.62,6.62,0,1,1,6.62-6.62A6.62,6.62,0,0,1,635.29,927Z"/><path class="cls-1" d="M655.63,927a6.62,6.62,0,1,1,6.62-6.62A6.62,6.62,0,0,1,655.63,927Z"/><path class="cls-1" d="M676,927a6.62,6.62,0,1,1,6.62-6.62A6.62,6.62,0,0,1,676,927Z"/><path class="cls-1" d="M696.31,927a6.62,6.62,0,1,1,6.61-6.62A6.62,6.62,0,0,1,696.31,927Z"/><path class="cls-1" d="M635.29,518.74a6.62,6.62,0,1,1,6.62-6.62A6.62,6.62,0,0,1,635.29,518.74Z"/><path class="cls-1" d="M655.63,518.74a6.62,6.62,0,1,1,6.62-6.62A6.62,6.62,0,0,1,655.63,518.74Z"/><path class="cls-1" d="M676,518.74a6.62,6.62,0,1,1,6.62-6.62A6.62,6.62,0,0,1,676,518.74Z"/><circle class="cls-1" cx="635.29" cy="530.68" r="6.62"/><circle class="cls-1" cx="655.63" cy="530.68" r="6.62"/><circle class="cls-1" cx="675.97" cy="530.68" r="6.62"/><circle class="cls-1" cx="696.31" cy="530.68" r="6.62"/><circle class="cls-1" cx="635.29" cy="549.24" r="6.62"/><circle class="cls-1" cx="655.63" cy="549.24" r="6.62"/><circle class="cls-1" cx="675.97" cy="549.24" r="6.62"/><circle class="cls-1" cx="696.31" cy="549.24" r="6.62"/><circle class="cls-1" cx="716.65" cy="549.24" r="6.62"/><circle class="cls-1" cx="736.98" cy="549.24" r="6.62"/><circle class="cls-1" cx="635.29" cy="567.79" r="6.62"/><circle class="cls-1" cx="655.63" cy="567.79" r="6.62"/><circle class="cls-1" cx="675.97" cy="567.79" r="6.62"/><circle class="cls-1" cx="696.31" cy="567.79" r="6.62"/><circle class="cls-1" cx="716.65" cy="567.79" r="6.62"/><circle class="cls-1" cx="635.29" cy="586.35" r="6.62"/><circle class="cls-1" cx="655.63" cy="586.35" r="6.62"/><circle class="cls-1" cx="675.97" cy="586.35" r="6.62"/><circle class="cls-1" cx="696.31" cy="586.35" r="6.62"/><path class="cls-1" d="M635.29,611.53a6.62,6.62,0,1,1,6.62-6.62A6.63,6.63,0,0,1,635.29,611.53Z"/><path class="cls-1" d="M655.63,611.53a6.62,6.62,0,1,1,6.62-6.62A6.62,6.62,0,0,1,655.63,611.53Z"/><path class="cls-1" d="M676,611.53a6.62,6.62,0,1,1,6.62-6.62A6.62,6.62,0,0,1,676,611.53Z"/><circle class="cls-1" cx="635.29" cy="623.47" r="6.62"/><circle class="cls-1" cx="655.63" cy="623.47" r="6.62"/><circle class="cls-1" cx="675.97" cy="623.47" r="6.62"/><circle class="cls-1" cx="696.31" cy="623.47" r="6.62"/><circle class="cls-1" cx="635.29" cy="642.02" r="6.62"/><circle class="cls-1" cx="655.63" cy="642.02" r="6.62"/><circle class="cls-1" cx="675.97" cy="642.02" r="6.62"/><circle class="cls-1" cx="696.31" cy="642.02" r="6.62"/><circle class="cls-1" cx="716.65" cy="642.02" r="6.62"/><circle class="cls-1" cx="736.98" cy="642.02" r="6.62"/><circle class="cls-1" cx="635.29" cy="660.58" r="6.62"/><circle class="cls-1" cx="655.63" cy="660.58" r="6.62"/><circle class="cls-1" cx="675.97" cy="660.58" r="6.62"/><circle class="cls-1" cx="696.31" cy="660.58" r="6.62"/><circle class="cls-1" cx="716.65" cy="660.58" r="6.62"/><path class="cls-1" d="M635.29,685.76a6.62,6.62,0,1,1,6.62-6.62A6.63,6.63,0,0,1,635.29,685.76Z"/><path class="cls-1" d="M655.63,685.76a6.62,6.62,0,1,1,6.62-6.62A6.62,6.62,0,0,1,655.63,685.76Z"/><path class="cls-1" d="M676,685.76a6.62,6.62,0,1,1,6.62-6.62A6.62,6.62,0,0,1,676,685.76Z"/><path class="cls-1" d="M696.31,685.76a6.62,6.62,0,1,1,6.61-6.62A6.62,6.62,0,0,1,696.31,685.76Z"/><path class="cls-1" d="M716.65,685.76a6.62,6.62,0,1,1,6.61-6.62A6.62,6.62,0,0,1,716.65,685.76Z"/><path class="cls-1" d="M737,685.76a6.62,6.62,0,1,1,6.62-6.62A6.62,6.62,0,0,1,737,685.76Z"/><path class="cls-1" d="M757.32,685.76a6.62,6.62,0,1,1,6.62-6.62A6.62,6.62,0,0,1,757.32,685.76Z"/><circle class="cls-1" cx="635.29" cy="697.7" r="6.62"/><circle class="cls-1" cx="655.63" cy="697.7" r="6.62"/><circle class="cls-1" cx="675.97" cy="697.7" r="6.62"/><circle class="cls-1" cx="696.31" cy="697.7" r="6.62"/><circle class="cls-1" cx="716.65" cy="697.7" r="6.62"/><circle class="cls-1" cx="736.98" cy="697.7" r="6.62"/></svg>